<svg width="54" height="54" viewBox="0 0 54 54" fill="none" xmlns="http://www.w3.org/2000/svg">
<path fill-rule="evenodd" clip-rule="evenodd" d="M52.985 53.0004C52.5984 53.3875 52.0739 53.6049 51.5268 53.6049C50.9798 53.6049 50.4552 53.3875 50.0686 53.0004L37.1715 40.1007C27.8542 47.8521 14.0881 46.9045 5.92076 37.9496C-2.2466 28.9947 -1.92646 15.1998 6.64752 6.63335C15.2215 -1.93306 29.0167 -2.24101 37.9644 5.93426C46.9121 14.1095 47.8475 27.8764 40.0879 37.1869L52.985 50.084C53.3721 50.4706 53.5895 50.9952 53.5895 51.5422C53.5895 52.0893 53.3721 52.6138 52.985 53.0004ZM22.6719 41.2369C32.9165 41.2369 41.2215 32.9319 41.2215 22.6873C41.2215 12.4426 32.9165 4.13764 22.6719 4.13764C12.4272 4.13764 4.12225 12.4426 4.12225 22.6873C4.1336 32.9272 12.4319 41.2255 22.6719 41.2369Z" fill="#A2A2A2"/>
</svg>
